#!OML:ASF F:\VICON\USERDATA\INSTALL\rory3\rory3.ASF
:FULLY-SPECIFIED
:DEGREES
1638
root 12.553 17.939 -5.55028 -541.919 29.2369 183.172
lowerback 9.97086 3.0629 -1.4589
upperback 0.68674 3.94353 -0.790917
thorax -4.90917 2.00048 -0.561855
lowerneck -18.5062 -4.98467 -9.55028
upperneck 30.0119 -5.1434 6.90899
head 13.7351 -1.96639 3.61346
rclavicle -3.51352e-014 4.77083e-014
rhumerus -33.8517 -8.11864 -83.2981
rradius 35.0833
rwrist 3.04961
rhand -14.9046 7.80802
rfingers 7.12502
rthumb 11.2567 -21.8699
lclavicle -3.51352e-014 4.77083e-014
lhumerus -38.7272 3.38855 83.5294
lradius 28.9602
lwrist -9.03485
lhand -15.9125 24.3702
lfingers 7.12502
lthumb 10.2846 54.0988
rfemur -3.79983 -14.2053 19.2737
rtibia 55.1247
rfoot 9.0042 -1.41816
rtoes 4.43452
lfemur -11.2811 7.43565 -27.6753
ltibia 15.3139
lfoot 0.972764 10.2318
ltoes 20.0776
1639
root 12.595 17.9382 -5.64163 -542.32 28.5002 182.465
lowerback 10.0474 3.0676 -2.08113
upperback 0.639669 3.87374 -0.946113
thorax -5.03134 1.97981 -0.373368
lowerneck -18.4472 -4.88561 -9.41562
upperneck 30.0012 -4.95723 6.66413
head 13.6854 -1.90054 3.52393
rclavicle -4.07012e-014 1.90833e-014
rhumerus -34.1486 -8.01183 -83.3639
rradius 34.9119
rwrist 3.12787
rhand -15.0838 8.33007
rfingers 7.12502
rthumb 11.0839 -21.3572
lclavicle -4.07012e-014 1.90833e-014
lhumerus -38.71 2.82628 83.7772
lradius 29.3001
lwrist -9.21096
lhand -15.8271 23.8505
lfingers 7.12502
lthumb 10.367 53.5749
rfemur -4.78692 -14.15 18.3533
rtibia 56.9251
rfoot 10.7614 -1.06721
rtoes 7.86325
lfemur -10.5625 7.59231 -28.4737
ltibia 14.7705
lfoot 0.736467 9.61111
ltoes 20.2007
1640
root 12.6345 17.9397 -5.73227 -542.62 27.667 181.952
lowerback 10.1085 3.02004 -2.50223
upperback 0.660183 3.76121 -1.08306
thorax -5.06026 1.93501 -0.267958
lowerneck -18.5468 -4.74665 -9.0759
upperneck 29.9601 -4.73459 6.27869
head 13.6425 -1.81678 3.34559
rclavicle -4.43787e-014 -1.90833e-014
rhumerus -34.2277 -8.0002 -83.4506
rradius 34.6222
rwrist 3.33141
rhand -15.0187 8.72652
rfingers 7.12502
rthumb 11.1467 -20.9574
lclavicle -4.43787e-014 -1.90833e-014
lhumerus -38.594 2.34694 83.9823
lradius 29.7121
lwrist -9.56761
lhand -15.8336 23.6252
lfingers 7.12502
lthumb 10.3607 53.3499
rfemur -5.74346 -14.2544 17.6319
rtibia 58.5808
rfoot 11.822 -0.675117
rtoes 7.55469
lfemur -9.85029 7.48655 -29.0869
ltibia 14.249
lfoot 0.637061 9.10009
ltoes 19.7719
1641
root 12.6762 17.9453 -5.82096 -542.891 26.8375 181.72
lowerback 10.2595 2.96792 -2.67285
upperback 0.698466 3.67087 -1.13354
thorax -5.11021 1.89595 -0.219558
lowerneck -18.5964 -4.63992 -8.9344
upperneck 29.9416 -4.54965 6.07295
head 13.6163 -1.74621 3.26973
rclavicle -1.30701e-014 1.59028e-014
rhumerus -34.2996 -8.01557 -83.5207
rradius 34.3606
rwrist 3.56592
rhand -14.8587 8.3792
rfingers 7.12502
rthumb 11.3011 -21.2963
lclavicle -1.30701e-014 1.59028e-014
lhumerus -38.5193 1.97362 84.1486
lradius 30.1286
lwrist -10.1927
lhand -16.6415 22.8634
lfingers 7.12502
lthumb 9.58128 52.6256
rfemur -6.54493 -14.3248 17.2697
rtibia 60.0173
rfoot 10.7587 0.147665
rtoes 1.73286
lfemur -9.06851 7.33913 -29.3735
ltibia 13.8193
lfoot 0.57157 8.49596
ltoes 19.0197
1642
root 12.721 17.9498 -5.90123 -543.126 25.9778 181.707
lowerback 10.5156 2.92505 -2.69332
upperback 0.717053 3.607 -1.10053
thorax -5.23584 1.86665 -0.178075
lowerneck -18.4757 -4.59771 -9.13814
upperneck 29.9008 -4.45603 6.20045
head 13.5743 -1.70807 3.37324
rclavicle -4.51738e-014 -1.51076e-014
rhumerus -34.4088 -7.94311 -83.5732
rradius 34.0943
rwrist 3.71188
rhand -14.7458 8.12796
rfingers 7.12502
rthumb 11.4099 -21.5416
lclavicle -4.51738e-014 -1.51076e-014
lhumerus -38.3734 1.51984 84.3284
lradius 31.2825
lwrist -8.10824
lhand -14.3085 24.7484
lfingers 7.12502
lthumb 11.8317 54.3942
rfemur -7.26031 -14.2233 17.2188
rtibia 61.2848
rfoot 9.00882 0.259914
rtoes -2.28716
lfemur -8.30499 7.2036 -29.386
ltibia 13.4694
lfoot 0.454965 7.76693
ltoes 18.7777
1643
root 12.7613 17.9532 -5.98118 -543.323 25.0454 181.553
lowerback 10.6255 2.83616 -2.85362
upperback 0.749316 3.4706 -1.08528
thorax -5.27093 1.80464 -0.0569267
lowerneck -18.4038 -4.52833 -9.4175
upperneck 29.9323 -4.31448 6.40846
head 13.5729 -1.6443 3.53354
rclavicle 1.30204e-014 -3.65764e-014
rhumerus -34.4948 -7.55492 -83.6816
rradius 33.8381
rwrist 3.66071
rhand -14.902 8.23832
rfingers 7.12502
rthumb 11.2593 -21.4395
lclavicle 1.30204e-014 -3.65764e-014
lhumerus -38.181 0.961815 84.6405
lradius 31.8364
lwrist -7.36675
lhand -14.4931 24.9022
lfingers 7.12502
lthumb 11.6536 54.5581
rfemur -8.01658 -14.0458 17.0217
rtibia 62.4182
rfoot 7.8418 -0.2945
rtoes -1.02884
lfemur -7.66982 6.94678 -29.5731
ltibia 13.1912
lfoot 0.316654 7.08801
ltoes 18.5872
1644
root 12.7989 17.9519 -6.06748 -543.545 24.0242 181.224
lowerback 10.6593 2.71801 -3.16308
upperback 0.791986 3.28035 -1.10557
thorax -5.25645 1.71958 0.123463
lowerneck -18.5491 -4.43905 -9.43765
upperneck 30.0499 -4.1075 6.27636
head 13.6312 -1.56882 3.52438
rclavicle -3.77691e-015 4.77083e-015
rhumerus -34.5279 -7.3092 -83.7273
rradius 33.4416
rwrist 3.82719
rhand -15.0552 8.27445
rfingers 7.12502
rthumb 11.1115 -21.4114
lclavicle -3.77691e-015 4.77083e-015
lhumerus -37.9587 0.614347 84.8923
lradius 32.3237
lwrist -6.75533
lhand -15.115 24.3512
lfingers 7.12502
lthumb 11.0539 54.0401
rfemur -8.77034 -13.9225 16.5976
rtibia 63.4336
rfoot 6.58132 -0.739366
rtoes 0.342154
lfemur -7.05268 6.59361 -29.9806
ltibia 12.9435
lfoot 0.145081 6.61723
ltoes 19.0291
1645
root 12.836 17.9528 -6.15331 -543.724 22.9679 181.144
lowerback 10.8319 2.61868 -3.23735
upperback 0.795829 3.13591 -1.06866
thorax -5.35067 1.6519 0.217389
lowerneck -18.5889 -4.40012 -9.31774
upperneck 30.1343 -3.96509 5.95149
head 13.6512 -1.53209 3.40059
rclavicle -3.1234e-014 1.27222e-014
rhumerus -34.6258 -7.41754 -83.6383
rradius 32.9732
rwrist 4.24551
rhand -14.9122 8.28422
rfingers 7.12502
rthumb 11.2495 -21.3941
lclavicle -3.1234e-014 1.27222e-014
lhumerus -37.8276 0.48493 85.0555
lradius 32.8797
lwrist -6.64062
lhand -15.3695 23.8323
lfingers 7.12502
lthumb 10.8084 53.5342
rfemur -9.41699 -13.7282 16.4407
rtibia 64.2707
rfoot 5.38423 -1.45241
rtoes 0.97225
lfemur -6.33951 6.2237 -30.1098
ltibia 12.623
lfoot -0.0131301 5.99006
ltoes 19.2383
1646
root 12.8739 17.9522 -6.24554 -543.928 22.0187 180.952
lowerback 10.8433 2.56739 -3.39551
upperback 0.815048 3.05122 -1.07703
thorax -5.34187 1.61487 0.310278
lowerneck -18.4422 -4.35454 -9.28817
upperneck 30.176 -3.83249 5.75943
head 13.6201 -1.49006 3.34446
rclavicle -1.94312e-014 -1.19271e-014
rhumerus -34.7562 -7.40744 -83.6042
rradius 32.5265
rwrist 4.67631
rhand -14.9682 8.44215
rfingers 7.12502
rthumb 11.1954 -21.2391
lclavicle -1.94312e-014 -1.19271e-014
lhumerus -37.7663 0.313878 85.1859
lradius 33.5375
lwrist -6.63782
lhand -15.0428 24.1107
lfingers 7.12502
lthumb 11.1235 53.7958
rfemur -9.92766 -13.3163 16.133
rtibia 64.9025
rfoot 4.56763 -2.26973
rtoes 5.5226
lfemur -5.6689 5.96298 -30.3584
ltibia 12.3981
lfoot -0.297981 5.12288
ltoes 17.7948
1647
root 12.9124 17.9471 -6.34685 -544.287 21.0938 180.595
lowerback 10.8014 2.52948 -3.70314
upperback 0.91934 2.97535 -1.12433
thorax -5.21906 1.58586 0.449649
lowerneck -18.3461 -4.25224 -9.33663
upperneck 30.1592 -3.6306 5.68182
head 13.5729 -1.41307 3.35739
rclavicle -2.5345e-014 4.92986e-014
rhumerus -34.8645 -7.65072 -83.4623
rradius 32.0809
rwrist 5.37379
rhand -15.2307 9.02234
rfingers 7.12502
rthumb 10.9422 -20.6725
lclavicle -2.5345e-014 4.92986e-014
lhumerus -37.613 0.155589 85.2852
lradius 34.1895
lwrist -6.53588
lhand -14.6624 24.5906
lfingers 7.12502
lthumb 11.4904 54.2557
rfemur -10.1644 -12.8777 15.559
rtibia 65.3305
rfoot 3.50637 -2.86771
rtoes 8.58808
lfemur -4.93892 5.66046 -30.7899
ltibia 12.4043
lfoot -0.923207 4.77695
ltoes 19.0076
1648
root 12.9455 17.9424 -6.4373 -544.467 20.0333 180.682
lowerback 10.8236 2.45237 -3.51323
upperback 1.05345 2.90686 -1.08396
thorax -5.08031 1.54859 0.399458
lowerneck -18.3124 -4.27705 -9.55639
upperneck 30.1666 -3.67032 5.95756
head 13.5849 -1.41242 3.50203
rclavicle -9.13167e-014 2.14687e-014
rhumerus -34.902 -8.18371 -83.1894
rradius 31.6822
rwrist 6.01819
rhand -15.0909 9.65591
rfingers 7.12502
rthumb 11.0771 -20.0318
lclavicle -9.13167e-014 2.14687e-014
lhumerus -37.3053 0.0748616 85.3918
lradius 34.8472
lwrist -6.35823
lhand -14.9935 25.156
lfingers 7.12502
lthumb 11.171 54.8387
rfemur -10.4685 -12.4703 15.5448
rtibia 65.6067
rfoot 2.63563 -3.6357
rtoes 3.09773
lfemur -4.32693 5.17436 -30.7775
ltibia 12.5146
lfoot -1.28429 4.67108
ltoes 21.4545
1649
root 12.9759 17.9422 -6.51556 -544.375 18.9859 181.018
lowerback 10.681 2.35352 -3.06186
upperback 1.17641 2.84407 -1.01587
thorax -4.85108 1.50727 0.238023
lowerneck -18.3915 -4.27989 -9.60052
upperneck 30.1352 -3.66057 5.9937
head 13.5896 -1.40648 3.52501
rclavicle 1.57537e-014 -5.56597e-015
rhumerus -34.7696 -8.50376 -83.0573
rradius 31.24
rwrist 6.25842
rhand -14.8136 9.95351
rfingers 7.12502
rthumb 11.3445 -19.7196
lclavicle 1.57537e-014 -5.56597e-015
lhumerus -36.8946 -0.106216 85.5049
lradius 35.5451
lwrist -5.98885
lhand -15.2757 25.9274
lfingers 7.12502
lthumb 10.8988 55.6245
rfemur -11.1065 -11.9278 15.9359
rtibia 65.7911
rfoot 2.56386 -4.40347
rtoes -1.5106
lfemur -4.0628 4.85236 -30.5022
ltibia 12.756
lfoot -1.33393 3.88189
ltoes 19.8797
1650
root 13.0092 17.941 -6.59176 -544.344 17.9186 181.108
lowerback 10.6121 2.26724 -2.91162
upperback 1.2279 2.75359 -1.02023
thorax -4.7488 1.45987 0.167545
lowerneck -18.4602 -4.26649 -9.50352
upperneck 30.2227 -3.59724 5.83404
head 13.6301 -1.38319 3.45894
rclavicle -1.38155e-014 7.95139e-015
rhumerus -34.7977 -8.69414 -83.0126
rradius 30.9191
rwrist 6.30918
rhand -14.614 9.78698
rfingers 7.12502
rthumb 11.5371 -19.8755
lclavicle -1.38155e-014 7.95139e-015
lhumerus -36.5171 -0.272196 85.52
lradius 36.0751
lwrist -5.86579
lhand -15.3082 26.0177
lfingers 7.12502
lthumb 10.8675 55.7165
rfemur -11.778 -11.365 16.0469
rtibia 65.892
rfoot 2.22358 -4.66004
rtoes -1.95402
lfemur -3.94221 4.60105 -30.4617
ltibia 13.195
lfoot -1.80043 2.61942
ltoes 14.6452
